<?xml version="1.0" encoding="utf-8"?>
<!-- Generator: Adobe Illustrator 22.1.0, SVG Export Plug-In . SVG Version: 6.00 Build 0)  -->
<!DOCTYPE svg PUBLIC "-//W3C//DTD SVG 1.1//EN" "http://www.w3.org/Graphics/SVG/1.1/DTD/svg11.dtd">
<svg version="1.1" id="Layer_1" xmlns="http://www.w3.org/2000/svg" xmlns:xlink="http://www.w3.org/1999/xlink" x="0px" y="0px"
	 viewBox="0 0 111 15.9" style="enable-background:new 0 0 111 15.9;" xml:space="preserve">
<style type="text/css">
	.st0{fill:#A3A3A3;}
</style>
<title>Artboard 1</title>
<g>
	<path class="st0" d="M75.6,10.8c-2,0-3.6-1.6-3.6-3.5c0-1.9,1.7-3.6,3.6-3.6c1,0,1.9,0.4,2.5,1.2c0.1,0.1,0.1,0.2,0.1,0.3
		c0,0.1-0.1,0.2-0.1,0.2L77.5,6c-0.1,0.1-0.1,0.1-0.2,0.1c-0.1,0-0.2-0.1-0.3-0.1c-0.4-0.4-0.9-0.7-1.4-0.7c-1.1,0-2,0.9-2,2
		c0,1.1,0.9,2,1.9,2c0.8,0,1.1-0.3,1.5-0.7l0.1-0.1c0.1-0.1,0.2-0.1,0.3-0.1c0.1,0,0.2,0,0.2,0.1l0.5,0.4c0.2,0.2,0.2,0.3,0.1,0.5
		C77.7,10.3,76.7,10.8,75.6,10.8z M82.1,3.7c-2,0-3.5,1.5-3.5,3.5c0,2,1.5,3.5,3.5,3.5c1,0,1.9-0.3,2.6-0.8c0.1-0.1,0.1-0.2,0.2-0.2
		c0-0.1-0.1-0.2-0.1-0.2l-0.5-0.6c-0.1-0.1-0.1-0.1-0.2-0.1c-0.1,0-0.2,0.1-0.3,0.1c-0.3,0.2-0.9,0.5-1.5,0.5
		c-1.1,0-1.9-0.9-1.9-1.7h4.6c0.2,0,0.3-0.1,0.3-0.3c0-0.1,0-0.3,0-0.5C85.3,5.1,83.9,3.7,82.1,3.7z M80.4,6.5
		c0.1-0.8,0.8-1.4,1.7-1.4c0.8,0,1.5,0.6,1.5,1.4L80.4,6.5z M92.7,10.7c0.2,0,0.4-0.2,0.4-0.3V7c0-2-1.1-3.2-2.9-3.2
		c-1.3,0-2.1,0.7-2.4,0.9l-0.2-0.5c0-0.1-0.2-0.2-0.3-0.2h-0.5c-0.2,0-0.4,0.2-0.4,0.3v6.1c0,0.2,0.2,0.3,0.4,0.3h0.9
		c0.3,0,0.4-0.1,0.4-0.3l0-4.1c0.1-0.3,0.9-1,1.9-1c0.9,0,1.4,0.6,1.4,1.6v3.4c0,0.2,0.2,0.3,0.4,0.3H92.7z M98.3,10.3
		c0.2-0.1,0.3-0.2,0.2-0.4l-0.3-0.7C98.1,9.1,98,9,97.9,9c0,0-0.1,0-0.1,0c-0.1,0-0.1,0-0.2,0c-0.3,0.1-0.7,0.3-1,0.3
		c-0.3,0-0.5,0-0.5-0.6l0-3.3h1.7c0.2,0,0.4-0.2,0.4-0.3V4.3c0-0.2-0.2-0.3-0.4-0.3l-1.7,0v-2c0-0.2-0.2-0.3-0.3-0.3l-1,0
		c-0.2,0-0.4,0.2-0.4,0.3l0,2.1h-0.6c-0.2,0-0.4,0.1-0.4,0.3V5c0,0.2,0.2,0.3,0.4,0.3l0.7,0v3.4c0,0.9,0.2,2,1.8,2
		C97.1,10.8,98.1,10.4,98.3,10.3z M102.1,3.7c-2,0-3.5,1.5-3.5,3.5c0,2,1.5,3.5,3.5,3.5c1,0,1.9-0.3,2.6-0.8
		c0.1-0.1,0.1-0.2,0.2-0.2c0-0.1-0.1-0.2-0.1-0.2l-0.5-0.6c-0.1-0.1-0.1-0.1-0.2-0.1c-0.1,0-0.2,0.1-0.3,0.1
		c-0.3,0.2-0.9,0.5-1.5,0.5c-1.1,0-1.8-0.9-1.9-1.7h4.6c0.2,0,0.3-0.1,0.3-0.3c0-0.1,0-0.3,0-0.5C105.3,5.1,103.9,3.7,102.1,3.7z
		 M100.4,6.5c0.1-0.8,0.8-1.4,1.7-1.4c0.8,0,1.4,0.6,1.5,1.4L100.4,6.5z M107.3,10.7c0.3,0,0.5,0,0.5-0.3l0-4.3
		c0.1-0.1,0.6-0.8,1.5-0.8c0.2,0,0.5,0.1,0.6,0.1c0.1,0,0.1,0,0.2,0l0,0c0.1,0,0.2-0.1,0.3-0.2l0.4-0.8c0-0.1,0-0.2,0-0.3
		c-0.2-0.3-0.8-0.4-1.3-0.4c-1.1,0-1.7,0.6-2,0.9l-0.1-0.4c0-0.1-0.2-0.3-0.3-0.3h-0.5c-0.2,0-0.4,0.2-0.4,0.3v6.1
		c0,0.2,0.2,0.3,0.4,0.3H107.3z M28.5,10.7c0.1,0,0.2-0.1,0.2-0.2V9.2c0-0.1-0.1-0.2-0.2-0.2h-0.1C28.1,9,28,8.9,28,8.7l0-7.3
		C28,1.1,27.8,1,27.6,1h-1c-0.2,0-0.4,0.2-0.4,0.3v8.3c0,0.6,0.5,1.1,1.1,1.1H28.5z M32.6,3.7c-1.4,0-2.4,0.4-2.4,0.4
		C30,4.2,29.9,4.4,30,4.6l0.1,0.6c0.1,0.2,0.2,0.3,0.3,0.3c0,0,0.1,0,0.1,0c0.7-0.2,1.4-0.3,1.9-0.3c0.4,0,0.6,0.1,0.8,0.2
		c0.2,0.2,0.3,0.5,0.2,1.2c-0.2-0.1-0.7-0.2-1.3-0.2c-1.7,0-2.8,0.9-2.8,2.2c0,1.4,0.9,2.3,2.3,2.3c0.8,0,1.4-0.3,2.1-0.8l0.1,0.3
		c0.1,0.2,0.1,0.3,0.3,0.3h0.5c0.2,0,0.4-0.2,0.4-0.3V6.8C35,5.1,34.8,3.7,32.6,3.7z M33.4,8.8c-0.2,0.3-0.8,0.8-1.5,0.8
		c-0.6,0-1-0.4-1-1c0-0.7,0.5-1.1,1.4-1.1c0.5,0,1,0.2,1.2,0.3L33.4,8.8z M42.4,10.7c0.2,0,0.4-0.2,0.4-0.3V7c0-2-1.1-3.2-2.9-3.2
		c-1.2,0-2,0.6-2.4,0.8l-0.2-0.5c0-0.1-0.2-0.2-0.3-0.2h-0.5c-0.2,0-0.4,0.2-0.4,0.3v6.1c0,0.2,0.2,0.3,0.4,0.3h0.9
		c0.3,0,0.4-0.1,0.4-0.3l0-4.1c0.1-0.3,0.9-1,1.9-1c0.9,0,1.4,0.6,1.4,1.6v3.4c0,0.2,0.2,0.3,0.4,0.3H42.4z M50.2,10.7
		c0.2,0,0.4-0.2,0.4-0.3V7c0-2-1.1-3.2-2.9-3.2c-1.3,0-2.1,0.7-2.4,0.8l-0.2-0.5c0-0.1-0.2-0.2-0.3-0.2h-0.5c-0.2,0-0.4,0.2-0.4,0.3
		v6.1c0,0.2,0.2,0.3,0.4,0.3h0.9c0.3,0,0.4-0.1,0.4-0.3l0-4.1c0.1-0.3,0.9-1,1.9-1c0.9,0,1.4,0.6,1.4,1.6v3.4c0,0.2,0.2,0.3,0.4,0.3
		H50.2z M53.8,1.8c0-0.6-0.5-1-1-1c-0.6,0-1,0.4-1,1c0,0.6,0.4,1,1,1C53.3,2.8,53.8,2.4,53.8,1.8z M53.3,10.7c0.2,0,0.4-0.2,0.4-0.3
		V4.3c0-0.2-0.2-0.3-0.4-0.3h-1c-0.2,0-0.4,0.2-0.4,0.3v6.1c0,0.2,0.2,0.3,0.4,0.3H53.3z M61.3,10.7c0.2,0,0.4-0.2,0.4-0.3V7
		c0-2.8-1.8-3.2-2.9-3.2c-1.3,0-2.1,0.7-2.4,0.8l-0.2-0.5c0-0.1-0.2-0.2-0.3-0.2h-0.5c-0.2,0-0.4,0.2-0.4,0.3v6.1
		c0,0.2,0.2,0.3,0.4,0.3h0.9c0.3,0,0.4-0.1,0.4-0.3l0-4.1c0.1-0.3,0.9-1,1.9-1c0.9,0,1.4,0.6,1.4,1.6v3.4c0,0.2,0.2,0.3,0.4,0.3
		H61.3z M69.3,3.9h-0.7c-0.1,0-0.2,0.1-0.3,0.2l-0.2,0.5c-0.3-0.3-1.1-0.9-2.3-0.9c-2,0-3.4,1.6-3.4,3.8c0,2.2,1.5,3.8,3.5,3.8
		c0.6,0,1.2-0.2,1.9-0.4l0,0.1c0,0.5-0.1,0.9-0.5,1.3C67,12.8,66.4,13,65.5,13c-0.7,0-1.3-0.3-1.7-0.5c0,0-0.1,0-0.1,0
		c-0.1,0-0.2,0.1-0.2,0.1l-0.4,0.7c-0.1,0.1,0,0.3,0.1,0.3c0.2,0.1,1.3,0.9,2.7,0.9H66c2.1-0.1,3.6-1.4,3.6-3.2V4.2
		C69.6,4.1,69.5,3.9,69.3,3.9z M68,8.9c0,0.3-0.2,0.6-0.4,0.7c-0.3,0.1-0.7,0.3-1.3,0.3c-1.2,0-2.1-1-2.1-2.3c0-1.4,0.8-2.3,2-2.3
		c1,0,1.5,0.7,1.7,0.9C67.9,6.2,68,6.4,68,6.5V8.9z M22,3.4c-1.1,0-1.8,0.5-2.3,0.9l-0.1,0.1l-0.1-0.6c-0.1-0.1-0.1-0.2-0.3-0.2
		h-0.7c-0.2,0-0.3,0.1-0.3,0.3v10c0,0.2,0.2,0.3,0.4,0.3h1c0.2,0,0.4-0.1,0.4-0.3l0.1-3.3c0.6,0.3,1.2,0.5,1.8,0.5
		c2,0,3.5-1.6,3.5-3.8C25.5,5,24,3.4,22,3.4z M21.7,9.5c-0.5,0-1-0.2-1.3-0.3C20.2,9.1,20,8.8,20,8.5V6.2c0-0.2,0-0.3,0.1-0.4
		c0.1-0.2,0.7-0.9,1.7-0.9c1.2,0,2,0.9,2,2.3C23.8,8.6,22.9,9.5,21.7,9.5z"/>
	<g>
		<path class="st0" d="M13.7,1.7L9,0.3C8.2,0,7.3,0,6.5,0.3L1.8,1.7C0.7,2,0,3,0,4.1v7.7c0,1.1,0.7,2.1,1.8,2.4l4.7,1.4
			c0.8,0.2,1.7,0.2,2.5,0l4.7-1.4c1.1-0.3,1.8-1.3,1.8-2.4V4.1C15.5,3,14.8,2,13.7,1.7z M11.6,9.3c0,0.3-0.2,0.6-0.6,0.7l-2.9,0.9
			c-0.3,0.1-0.6,0.1-0.8,0l-1.7-0.5v1.2c0,0.1-0.1,0.2-0.1,0.3C5.4,12,5.3,12,5.3,12c0,0-0.1,0-0.1,0l-1-0.3c-0.2,0-0.3-0.2-0.3-0.4
			V5.7c0-0.3,0.1-0.6,0.4-0.7c0.2-0.2,0.5-0.2,0.8-0.2l2.5,0.8c0,0,0.1,0,0.2,0l2.5-0.8c0.3-0.1,0.6,0,0.9,0.1
			c0.3,0.2,0.4,0.5,0.4,0.8V9.3z"/>
		<path class="st0" d="M9.9,6.5L8.3,7c-0.3,0.1-0.7,0.1-1,0L5.6,6.5c-0.1,0-0.1,0-0.1,0.1v2.1c0,0.1,0,0.1,0.1,0.1l2,0.6
			c0.1,0,0.2,0,0.3,0l2-0.6C10,8.8,10,8.7,10,8.7V6.6C10,6.5,10,6.5,9.9,6.5z"/>
	</g>
</g>
</svg>
